<svg xmlns="http://www.w3.org/2000/svg" xmlns:xlink="http://www.w3.org/1999/xlink" viewBox="0,0,256,256" width="25px" height="25px" fill-rule="nonzero"><g fill-opacity="0" fill="#dddddd" fill-rule="nonzero" stroke="none" stroke-width="1" stroke-linecap="butt" stroke-linejoin="miter" stroke-miterlimit="10" stroke-dasharray="" stroke-dashoffset="0" font-family="none" font-weight="none" font-size="none" text-anchor="none" style="mix-blend-mode: normal"><path d="M0,256v-256h256v256z" id="bgRectangle"></path></g><g fill="none" fill-rule="nonzero" stroke="none" stroke-width="none" stroke-linecap="none" stroke-linejoin="none" stroke-miterlimit="10" stroke-dasharray="" stroke-dashoffset="0" font-family="none" font-weight="none" font-size="none" text-anchor="none" style="mix-blend-mode: normal"><g transform="scale(4,4)"><ellipse cx="32" cy="60.999" rx="19" ry="3" fill="#000000" stroke="none" stroke-width="1" stroke-linecap="butt" stroke-linejoin="miter" opacity="0.3"></ellipse><path d="M32,18.2c2.3,0 4.464,0.568 6.369,1.566c1.817,0.952 4.025,0.692 5.476,-0.759c2.174,-2.173 1.656,-5.853 -1.056,-7.305c-3.215,-1.722 -6.886,-2.702 -10.789,-2.702c-8.825,0 -16.482,4.977 -20.339,12.275l7.592,5.435c2.077,-4.996 6.999,-8.51 12.747,-8.51z" fill="#fd3c4f" stroke="none" stroke-width="1" stroke-linecap="butt" stroke-linejoin="miter"></path><path d="M19.009,36.627c-0.515,-1.449 -0.809,-3.001 -0.809,-4.627c0,-1.875 0.377,-3.659 1.053,-5.29l-7.592,-5.435c-1.693,3.204 -2.661,6.85 -2.661,10.725c0,3.777 0.927,7.33 2.539,10.474l0.003,-0.002v0z" fill="#ffce29" stroke="none" stroke-width="1" stroke-linecap="butt" stroke-linejoin="miter"></path><path d="M32,45.8c-5.996,0 -11.084,-3.832 -12.988,-9.175l-0.002,0.002v0l-7.468,5.845c3.811,7.431 11.532,12.528 20.458,12.528c5.932,0 11.321,-2.263 15.398,-5.95l-7.155,-6.012c-2.3,1.725 -5.145,2.762 -8.243,2.762z" fill="#98c900" stroke="none" stroke-width="1" stroke-linecap="butt" stroke-linejoin="miter"></path><path d="M19.009,36.627l-7.467,5.845v0l7.468,-5.844z" fill="#68e5fd" stroke="none" stroke-width="1" stroke-linecap="butt" stroke-linejoin="miter"></path><path d="M54.985,31.244c-0.085,-2.176 -1.841,-3.913 -4.019,-3.904l-14.366,0.06c-2.542,0 -4.6,2.059 -4.6,4.6c0,2.541 2.058,4.6 4.6,4.6h8.397c-0.918,2.592 -2.597,4.818 -4.754,6.438l7.155,6.012c4.658,-4.209 7.602,-10.279 7.602,-17.05c0,-0.249 -0.005,-0.501 -0.015,-0.756z" fill="#9c34c2" stroke="none" stroke-width="1" stroke-linecap="butt" stroke-linejoin="miter"></path><path d="M32,14c2.574,0 4.668,-1.952 4.945,-4.452c-1.593,-0.352 -3.245,-0.548 -4.945,-0.548c-8.825,0 -16.482,4.977 -20.339,12.275c-0.773,1.463 -1.386,3.021 -1.833,4.648c0.596,0.236 1.216,0.353 1.83,0.353c1.794,0 3.527,-0.968 4.425,-2.665c3.132,-5.928 9.231,-9.611 15.917,-9.611z" fill="#ffffff" stroke="none" stroke-width="1" stroke-linecap="butt" stroke-linejoin="miter" opacity="0.3"></path><path d="M54.985,31.244c-0.063,-1.612 -1.046,-2.979 -2.435,-3.578c-1.516,0.86 -2.55,2.468 -2.55,4.334c0,5.058 -2.17,9.92 -5.955,13.341c-3.323,3.004 -7.601,4.659 -12.045,4.659c-2.578,0 -4.675,1.958 -4.946,4.463c1.593,0.35 3.247,0.537 4.946,0.537c5.932,0 11.321,-2.263 15.398,-5.95c4.658,-4.209 7.602,-10.279 7.602,-17.05c0,-0.249 -0.005,-0.501 -0.015,-0.756z" fill="#000000" stroke="none" stroke-width="1" stroke-linecap="butt" stroke-linejoin="miter" opacity="0.15"></path><path d="M19.481,17.051c1.15,-0.965 2.406,-1.793 3.742,-2.467c1.336,-0.674 2.753,-1.195 4.224,-1.548" fill="none" stroke="#ffffff" stroke-width="3" stroke-linecap="round" stroke-linejoin="round"></path></g></g></svg>